# xmcd
#
# Track frame offsets: 
#        150
#        18909
#        40583
#        57108
#        67956
#        87044
#        106396
#        118452
#        135526
#        153203
#        172493
#        187839
#        210040
#        228152
#
# Disc length: 3266 seconds
#
# Revision: 0
# Processed by: cddbd v1.5.2PL0 Copyright (c) Steve Scherf et al.
# Submitted via: ExactAudioCopy v1.3
#
DISCID=aa0cc00e
DTITLE=Awek - Long Distance
DYEAR=2017
DGENRE=Blues
TTITLE0=Don't Leave Me All Alone
TTITLE1=Long Distance Call
TTITLE2=Think
TTITLE3=We Met In Texas
TTITLE4=She Moves Me
TTITLE5=Hound Dog
TTITLE6=L.A. Stomp
TTITLE7=I'm Gonna Hit That Highway
TTITLE8=Sunny Sunday
TTITLE9=Scratch Blues
TTITLE10=The Hustle Is On
TTITLE11=Take Out Some Insurance
TTITLE12=I Forgot To Forget You
TTITLE13=Jammin'
EXTD=
EXTT0=
EXTT1=
EXTT2=
EXTT3=
EXTT4=
EXTT5=
EXTT6=
EXTT7=
EXTT8=
EXTT9=
EXTT10=
EXTT11=
EXTT12=
EXTT13=
PLAYORDER=
